<svg xmlns="http://www.w3.org/2000/svg" xmlns:xlink="http://www.w3.org/1999/xlink" width="108" height="108" viewBox="0 0 108 108"><defs><linearGradient id="a" x1="1.791" y1="-0.62" x2="-0.17" y2="1.145" gradientUnits="objectBoundingBox"><stop offset="0" stop-color="#00f8ff"/><stop offset="0.371" stop-color="#2673d8"/><stop offset="1" stop-color="#dd0afe"/><stop offset="1" stop-color="#ef09ff"/></linearGradient><filter id="b" x="0" y="0" width="108" height="108" filterUnits="userSpaceOnUse"><feOffset dy="3" input="SourceAlpha"/><feGaussianBlur stdDeviation="3" result="c"/><feFlood flood-opacity="0.161"/><feComposite operator="in" in2="c"/><feComposite in="SourceGraphic"/></filter></defs><g transform="translate(-727 -170)"><g transform="matrix(1, 0, 0, 1, 727, 170)" filter="url(#b)"><rect width="90" height="90" rx="20" transform="translate(9 6)" fill="url(#a)"/></g><g transform="translate(757 197)"><ellipse cx="13.151" cy="13.019" rx="13.151" ry="13.019" transform="translate(10.849)" fill="#fff"/><path d="M42.631,282.226a48.461,48.461,0,0,0-9.277-3.582,1.087,1.087,0,0,0-1.31.681l-4.471,12.406L26.218,285l2.09-6.236a1.077,1.077,0,0,0-.151-.978,1.089,1.089,0,0,0-.884-.45H20.727a1.089,1.089,0,0,0-.884.45,1.077,1.077,0,0,0-.151.978L21.782,285l-1.354,6.734-4.471-12.406a1.089,1.089,0,0,0-1.31-.681,48.456,48.456,0,0,0-9.277,3.582A9.757,9.757,0,0,0,0,290.934v1.588a4.357,4.357,0,0,0,4.364,4.34H43.636A4.357,4.357,0,0,0,48,292.522v-1.588A9.757,9.757,0,0,0,42.631,282.226Z" transform="translate(0 -248.862)" fill="#fff"/></g></g></svg>