<svg xmlns="http://www.w3.org/2000/svg" xmlns:xlink="http://www.w3.org/1999/xlink" width="23.87" height="23.879" viewBox="0 0 23.87 23.879"><defs><linearGradient id="a" x1="0.5" x2="0.5" y2="1" gradientUnits="objectBoundingBox"><stop offset="0" stop-color="#00ef9f"/><stop offset="1" stop-color="#0084ea"/></linearGradient></defs><path d="M32.319,18.011l-4.358-4.358a.815.815,0,0,0-1.181,0L13.059,27.346a.8.8,0,0,0-.225.394L11.456,33.5a.888.888,0,0,0,.225.787.809.809,0,0,0,.59.253.478.478,0,0,0,.2-.028l5.764-1.378a.8.8,0,0,0,.394-.225L32.319,19.192A.815.815,0,0,0,32.319,18.011ZM14.8,27.992l9.335-9.335.984.984-9.307,9.335Zm-.7,1.687,2.193,2.193-2.9.7Zm3.88,1.49-1.012-1.012L26.3,20.823l.984.984ZM28.523,20.626l-3.177-3.177,2.024-2.024L30.547,18.6Z" transform="translate(-13.193 -8.736) rotate(-8)" fill="url(#a)"/></svg>