<svg xmlns="http://www.w3.org/2000/svg" xmlns:xlink="http://www.w3.org/1999/xlink" width="108" height="108" viewBox="0 0 108 108"><defs><linearGradient id="a" x1="1.902" y1="-1.053" x2="-0.423" y2="1.422" gradientUnits="objectBoundingBox"><stop offset="0" stop-color="#ef700f"/><stop offset="1" stop-color="#f7ff00"/></linearGradient><filter id="b" x="0" y="0" width="108" height="108" filterUnits="userSpaceOnUse"><feOffset dy="3" input="SourceAlpha"/><feGaussianBlur stdDeviation="3" result="c"/><feFlood flood-opacity="0.161"/><feComposite operator="in" in2="c"/><feComposite in="SourceGraphic"/></filter></defs><g transform="translate(-1079 -170)"><g transform="matrix(1, 0, 0, 1, 1079, 170)" filter="url(#b)"><rect width="90" height="90" rx="20" transform="translate(9 6)" fill="url(#a)"/></g><g transform="translate(1100.219 197)"><path d="M385.9,268.139a15.832,15.832,0,0,1-1.169,7.882h0l3.78,4.882a.963.963,0,0,0,1.392.137,17.25,17.25,0,0,0,5.973-11.882.958.958,0,0,0-.959-1.019H385.9Z" transform="translate(-339.122 -243.081)" fill="#fff"/><path d="M298.141.962V12.9A15.961,15.961,0,0,1,305.7,19.72h10.974a.959.959,0,0,0,.961-.991A19.507,19.507,0,0,0,299.143,0a.959.959,0,0,0-1,.96Z" transform="translate(-260.854 0)" fill="#fff"/><path d="M30.477,98.493A15.5,15.5,0,1,1,30.31,67.5V62.927a.952.952,0,0,0-1-.939A21.258,21.258,0,0,0,8.781,83c0,11.638,9.758,21.107,21.67,21.032a21.774,21.774,0,0,0,12.1-3.725.925.925,0,0,0,.211-1.346L39.89,95.341a16.024,16.024,0,0,1-9.414,3.152Z" transform="translate(0 -56.029)" fill="#fff"/><path d="M97.741,163.688a12.979,12.979,0,1,0,12.979-12.979A12.994,12.994,0,0,0,97.741,163.688Zm14.421-8.622v1.375a5.06,5.06,0,0,1,3.709,1.613,1.442,1.442,0,0,1-2.1,1.971,2.169,2.169,0,0,0-1.546-.7H109.1a1.461,1.461,0,1,0,0,2.922h3.232a4.346,4.346,0,1,1-.175,8.689v1.374a1.442,1.442,0,1,1-2.883,0v-1.374a5.085,5.085,0,0,1-3.188-.923,1.442,1.442,0,0,1,1.644-2.369,2.2,2.2,0,0,0,1.2.408h3.4a1.461,1.461,0,0,0,0-2.923H109.1a4.346,4.346,0,1,1,.174-8.689v-1.375a1.442,1.442,0,0,1,2.883,0Z" transform="translate(-80.132 -136.848)" fill="#fff"/></g></g></svg>