<svg xmlns="http://www.w3.org/2000/svg" xmlns:xlink="http://www.w3.org/1999/xlink" width="29.003" height="29" viewBox="0 0 29.003 29"><defs><filter id="a" x="0" y="0" width="29.003" height="29" filterUnits="userSpaceOnUse"><feOffset input="SourceAlpha"/><feGaussianBlur stdDeviation="1.5" result="b"/><feFlood flood-color="#419f7a"/><feComposite operator="in" in2="b"/><feComposite in="SourceGraphic"/></filter></defs><g transform="matrix(1, 0, 0, 1, 0, 0)" filter="url(#a)"><path d="M14.679,12.931a8.126,8.126,0,1,0-1.746,1.748h0a1.462,1.462,0,0,0,.123.144l4.813,4.813a1.25,1.25,0,0,0,1.769-1.768l-4.813-4.813a1.259,1.259,0,0,0-.144-.125ZM15,8.125A6.876,6.876,0,1,1,8.126,1.25,6.876,6.876,0,0,1,15,8.125Z" transform="translate(4.5 4.5)" fill="#419f7a"/></g></svg>