<svg xmlns="http://www.w3.org/2000/svg" width="48" height="48" viewBox="0 0 48 48"><g transform="translate(-16 0)"><g transform="translate(16 0)"><g transform="translate(0 0)"><path d="M61,22.742c0-15.828.047-14.82-.11-15.184a1.388,1.388,0,0,0-.978-1.879l-21-5.625a1.6,1.6,0,0,0-.824,0l-21,5.625a1.384,1.384,0,0,0,0,2.7L25,10.5v6.372a14.151,14.151,0,0,0,7.387,12.536l-.828,1.552a16.773,16.773,0,0,0-10.736,4.608A15.164,15.164,0,0,0,16,46.594,1.455,1.455,0,0,0,17.5,48h42A1.455,1.455,0,0,0,61,46.594a15.164,15.164,0,0,0-4.823-11.023,16.773,16.773,0,0,0-10.736-4.607l-.828-1.553A14.151,14.151,0,0,0,52,16.876V10.5L58,8.9V22.742a4.253,4.253,0,0,0-3,3.977v2.812a1.455,1.455,0,0,0,1.5,1.406h6A1.455,1.455,0,0,0,64,29.532V26.719A4.253,4.253,0,0,0,61,22.742ZM37,45.188H19.08A13.249,13.249,0,0,1,31.713,33.773L37,41.208ZM34.231,32.243,35.16,30.5a13.015,13.015,0,0,0,6.681,0l.929,1.741-4.269,6Zm11.056,1.53A13.249,13.249,0,0,1,57.92,45.188H40v-3.98ZM38.5,28.126A10.732,10.732,0,0,1,28.2,19.07a26.835,26.835,0,0,0,10.3,2.024,26.839,26.839,0,0,0,10.3-2.023A10.732,10.732,0,0,1,38.5,28.126ZM48.967,15.288a1.291,1.291,0,0,1-.7.914A23.482,23.482,0,0,1,38.5,18.282a23.479,23.479,0,0,1-9.764-2.08A1.34,1.34,0,0,1,28,14.98V11.307c10.886,2.916,10.2,2.756,10.5,2.756s-.388.16,10.5-2.756A33.275,33.275,0,0,1,48.967,15.288ZM38.5,11.194,22.96,7.032,38.5,2.869,54.04,7.032ZM61,28.126H58V26.719a1.5,1.5,0,0,1,3,0Z" transform="translate(-16 0)" fill="#fff"/></g></g><g transform="translate(46.003 38.806)"><path d="M320.5,420h-3a1.5,1.5,0,0,0,0,3h3a1.5,1.5,0,0,0,0-3Z" transform="translate(-316 -420.001)" fill="#fff"/></g></g></svg>